# xmcd CD database file generated by Grip 3.2.0
# 
# Track frame offsets:
#       165
#       19415
#       45660
#       64110
#       93480
#       97070
#       111862
#       145202
#       171345
#       206050
#       255337
#       312847
#       337185
# 
# Disc length: 4739 seconds
# 
# Revision: 4
# Processed by: cddbd v1.5.1PL0 Copyright (c) Steve Scherf et al.
# Submitted via: Grip 3.2.0
# 
DISCID=c112810d,c512810d
DTITLE=Steve Marriott - Dingwalls 6.7.84
DYEAR=1984
DGENRE=Blues
TTITLE0=What'cha Gonna Do About It
TTITLE1=Fool For A Pretty Face
TTITLE2=Shame On You
TTITLE3=Bad Moon Rising
TTITLE4=The Cockney Rhyme
TTITLE5=All Shook Up
TTITLE6=The Fixer
TTITLE7=All Or Nothing
TTITLE8=Five Long Years
TTITLE9=Thirty Days In The Hole
TTITLE10=I Don't Need No Doctor
TTITLE11=Big Train Stop At Memphis
TTITLE12=Walkin' The Dog
EXTD=ID3G:   0 YEAR: 1984
EXTT0=
EXTT1=
EXTT2=
EXTT3=
EXTT4=
EXTT5=
EXTT6=
EXTT7=
EXTT8=
EXTT9=
EXTT10=
EXTT11=
EXTT12=
PLAYORDER=
